STARTFONT 2.1
COMMENT  
COMMENT  (c) Copyright 1994 by Star Division GmbH
COMMENT  
COMMENT  WARNING:  This bdf file was generated from a font server using
COMMENT  fstobdf.  The resulting font is subject to the same copyright,
COMMENT  license, and trademark restrictions as the original font.  The
COMMENT  authors and distributors of fstobdf disclaim all liability for
COMMENT  misuse of the program or its output.
COMMENT  
FONT -Star Division-starmath-medium-r-normal--25-240-75-75-p-0-iso8859-1
SIZE 24 75 75
FONTBOUNDINGBOX 46 31 -4 -9
STARTPROPERTIES 54
FONT "-Star Division-starmath-medium-r-normal--25-240-75-75-p-0-iso8859-1"
FONT_TYPE "TrueType"
TECHNOLOGY "TrueType"
FOUNDRY ""
FAMILY_NAME "starmath"
WEIGHT_NAME "medium"
SLANT "r"
SETWIDTH_NAME "normal"
ADD_STYLE_NAME ""
PIXEL_SIZE 24
POINT_SIZE 240
RESOLUTION_X 75
RESOLUTION_Y 75
SPACING "p"
AVERAGE_WIDTH 150
CHARSET_REGISTRY "iso8859"
CHARSET_ENCODING "1"
AVG_LOWERCASE_WIDTH 12
RAW_AVG_LOWERCASE_WIDTH 500
SUBSCRIPT_X 0
SUBSCRIPT_Y 11
SUBSCRIPT_SIZE 12
RAW_SUBSCRIPT_X 0
RAW_SUBSCRIPT_Y 499
RAW_SUBSCRIPT_SIZE 500
SUPERSCRIPT_X 0
SUPERSCRIPT_Y 6
SUPERSCRIPT_SIZE 12
RAW_SUPERSCRIPT_X 0
RAW_SUPERSCRIPT_Y 250
RAW_SUPERSCRIPT_SIZE 500
STRIKEOUT_ASCENT 7
STRIKEOUT_DESCENT -5
RAW_STRIKEOUT_ASCENT 299
RAW_STRIKEOUT_DESCENT -249
RELATIVE_SETWIDTH 50
RELATIVE_WEIGHT 40
_GALLIUM_PANOSE "5 11 5 0 0 0 0 0 0 0"
UNDERLINE_POSITION 1
UNDERLINE_THICKNESS 1
RAW_UNDERLINE_POSITION 99
RAW_UNDERLINE_THICKNESS 50
ITALIC_ANGLE 0
RAW_PIXEL_SIZE 1000
RAW_POINT_SIZE 9636
FONT_ASCENT 21
FONT_DESCENT 8
RAW_ASCENT 863
RAW_DESCENT 325
RAW_AVERAGE_WIDTH 6260
COPYRIGHT "(c) Copyright 1994 by Star Division GmbH"
FACE_NAME "StarMath"
NOTICE "Created by Type-Designer 2.5"
DEFAULT_CHAR 0
ENDPROPERTIES
CHARS 223
STARTCHAR exclam
ENCODING 33
SWIDTH 280 0
DWIDTH 7 0
BBX 3 18 2 0
ATTRIBUTES 0115
BITMAP
e0
e0
e0
e0
e0
e0
e0
e0
e0
e0
60
40
40
40
00
e0
e0
e0
ENDCHAR
STARTCHAR quotedbl
ENCODING 34
SWIDTH 360 0
DWIDTH 9 0
BBX 7 6 1 12
ATTRIBUTES 0162
BITMAP
ee
ee
ee
ee
ee
66
ENDCHAR
STARTCHAR numbersign
ENCODING 35
SWIDTH 560 0
DWIDTH 14 0
BBX 13 18 0 0
ATTRIBUTES 022b
BITMAP
0430
0c30
0c20
0c60
0860
fff8
fff8
1840
1840
1840
18c0
fff8
fff8
3180
3180
6180
6180
6100
ENDCHAR
STARTCHAR dollar
ENCODING 36
SWIDTH 960 0
DWIDTH 24 0
BBX 24 19 0 -1
ATTRIBUTES 03c0
BITMAP
000800
381000
4c1000
c42000
c62000
c64000
c64000
468000
4c8000
390000
011c1c
022222
026363
046363
046363
0c6363
082222
08363e
100800
ENDCHAR
STARTCHAR percent
ENCODING 37
SWIDTH 840 0
DWIDTH 21 0
BBX 19 18 0 -1
ATTRIBUTES 0340
BITMAP
380100
4c0200
c40400
c60400
c60800
c61000
461000
4c2000
384000
004380
008440
010c60
010c60
020c60
040c60
0c0460
0806c0
100100
ENDCHAR
STARTCHAR ampersand
ENCODING 38
SWIDTH 760 0
DWIDTH 19 0
BBX 18 17 0 0
ATTRIBUTES 0309
BITMAP
038000
064000
0c2000
0c2000
0c4000
0e4000
079f00
070c00
1f0c00
3b8800
71d000
61d000
e0e000
e07040
f0f840
713f80
3e1e00
ENDCHAR
STARTCHAR apostrophe
ENCODING 39
SWIDTH 720 0
DWIDTH 18 0
BBX 17 10 0 1
ATTRIBUTES 02c8
BITMAP
387e00
646300
c2c180
81c080
818080
838080
c38080
664100
3e2300
001c00
ENDCHAR
STARTCHAR parenleft
ENCODING 40
SWIDTH 320 0
DWIDTH 8 0
BBX 5 28 2 -6
ATTRIBUTES 0153
BITMAP
08
08
10
20
20
40
40
40
80
80
80
80
80
80
80
80
80
80
80
80
40
40
40
40
20
20
10
08
ENDCHAR
STARTCHAR parenright
ENCODING 41
SWIDTH 320 0
DWIDTH 8 0
BBX 5 28 1 -6
ATTRIBUTES 0153
BITMAP
80
80
40
20
20
10
10
10
08
08
08
08
08
08
08
08
08
08
08
08
08
10
10
10
20
20
40
40
ENDCHAR
STARTCHAR asterisk
ENCODING 42
SWIDTH 400 0
DWIDTH 10 0
BBX 8 7 1 11
ATTRIBUTES 0185
BITMAP
18
18
ff
ff
18
3c
66
ENDCHAR
STARTCHAR plus
ENCODING 43
SWIDTH 600 0
DWIDTH 15 0
BBX 12 12 1 3
ATTRIBUTES 0247
BITMAP
0600
0600
0600
0600
0600
fff0
fff0
0600
0600
0600
0600
0600
ENDCHAR
STARTCHAR comma
ENCODING 44
SWIDTH 280 0
DWIDTH 7 0
BBX 3 6 2 -3
ATTRIBUTES 0115
BITMAP
e0
e0
e0
60
60
c0
ENDCHAR
STARTCHAR minus
ENCODING 45
SWIDTH 320 0
DWIDTH 8 0
BBX 7 2 1 5
ATTRIBUTES 014c
BITMAP
fe
fe
ENDCHAR
STARTCHAR period
ENCODING 46
SWIDTH 280 0
DWIDTH 7 0
BBX 3 3 2 0
ATTRIBUTES 0115
BITMAP
e0
e0
e0
ENDCHAR
STARTCHAR slash
ENCODING 47
SWIDTH 280 0
DWIDTH 7 0
BBX 7 19 0 0
ATTRIBUTES 0115
BITMAP
06
06
04
0c
0c
0c
08
18
18
10
30
30
30
20
60
60
40
c0
c0
ENDCHAR
STARTCHAR 0
ENCODING 48
SWIDTH 560 0
DWIDTH 14 0
BBX 12 18 1 0
ATTRIBUTES 022b
BITMAP
1f00
3fc0
70e0
6060
e060
c030
c030
c030
c030
c030
c030
c030
c030
6070
6060
30e0
3fc0
0f80
ENDCHAR
STARTCHAR 1
ENCODING 49
SWIDTH 560 0
DWIDTH 14 0
BBX 6 18 3 0
ATTRIBUTES 022b
BITMAP
0c
0c
1c
7c
ec
cc
8c
0c
0c
0c
0c
0c
0c
0c
0c
0c
0c
0c
ENDCHAR
STARTCHAR 2
ENCODING 50
SWIDTH 560 0
DWIDTH 14 0
BBX 12 18 0 0
ATTRIBUTES 022b
BITMAP
0f80
1fe0
38e0
3070
6030
0030
0070
0060
00e0
01c0
0380
0700
0e00
1c00
3000
7000
7ff0
7ff0
ENDCHAR
STARTCHAR 3
ENCODING 51
SWIDTH 560 0
DWIDTH 14 0
BBX 12 18 1 0
ATTRIBUTES 022b
BITMAP
0f00
3fc0
70e0
6060
e060
0060
01e0
07c0
07c0
00e0
0060
0030
0030
e030
6070
78e0
3fc0
1f00
ENDCHAR
STARTCHAR 4
ENCODING 52
SWIDTH 560 0
DWIDTH 14 0
BBX 12 18 0 0
ATTRIBUTES 022b
BITMAP
00c0
00c0
01c0
03c0
06c0
06c0
0cc0
18c0
18c0
30c0
60c0
60c0
fff0
fff0
00c0
00c0
00c0
00c0
ENDCHAR
STARTCHAR 5
ENCODING 53
SWIDTH 560 0
DWIDTH 14 0
BBX 12 18 1 0
ATTRIBUTES 022b
BITMAP
3fe0
3fe0
3000
7000
6000
6000
6780
7fc0
70e0
0070
0030
0030
0030
e030
e060
78e0
3fc0
1f00
ENDCHAR
STARTCHAR 6
ENCODING 54
SWIDTH 560 0
DWIDTH 14 0
BBX 12 18 1 0
ATTRIBUTES 022b
BITMAP
0f80
1fc0
38e0
7070
6020
e000
e780
efc0
f8e0
f070
e030
e030
e030
e030
7060
78e0
3fc0
0f00
ENDCHAR
STARTCHAR 7
ENCODING 55
SWIDTH 560 0
DWIDTH 14 0
BBX 12 18 1 0
ATTRIBUTES 022b
BITMAP
fff0
fff0
0060
00e0
01c0
0180
0380
0300
0700
0600
0600
0c00
0c00
0c00
1c00
1800
1800
1800
ENDCHAR
STARTCHAR 8
ENCODING 56
SWIDTH 560 0
DWIDTH 14 0
BBX 12 18 1 0
ATTRIBUTES 022b
BITMAP
0f00
3fc0
79e0
60e0
6060
6060
78e0
1f80
1f80
70e0
6060
e030
e030
e030
e070
70e0
3fc0
1f80
ENDCHAR
STARTCHAR 9
ENCODING 57
SWIDTH 560 0
DWIDTH 14 0
BBX 12 18 1 0
ATTRIBUTES 022b
BITMAP
1e00
3fc0
70e0
e060
c020
c030
c030
c030
e070
70f0
3fb0
1e30
0030
4030
e060
70e0
3fc0
1f00
ENDCHAR
STARTCHAR colon
ENCODING 58
SWIDTH 280 0
DWIDTH 7 0
BBX 3 13 2 0
ATTRIBUTES 0115
BITMAP
e0
e0
e0
00
00
00
00
00
00
00
e0
e0
e0
ENDCHAR
STARTCHAR semicolon
ENCODING 59
SWIDTH 280 0
DWIDTH 7 0
BBX 3 16 2 -3
ATTRIBUTES 0115
BITMAP
e0
e0
e0
00
00
00
00
00
00
00
e0
e0
e0
60
60
c0
ENDCHAR
STARTCHAR less
ENCODING 60
SWIDTH 600 0
DWIDTH 15 0
BBX 12 12 1 3
ATTRIBUTES 0247
BITMAP
0010
0070
03e0
0f80
3e00
f000
e000
7c00
1f00
03e0
00f0
0030
ENDCHAR
STARTCHAR equal
ENCODING 61
SWIDTH 800 0
DWIDTH 20 0
BBX 14 6 3 4
ATTRIBUTES 031a
BITMAP
fffc
0000
0000
0000
0000
fffc
ENDCHAR
STARTCHAR greater
ENCODING 62
SWIDTH 600 0
DWIDTH 15 0
BBX 12 12 1 3
ATTRIBUTES 0247
BITMAP
8000
e000
fc00
1f00
07e0
00f0
0070
03e0
0f80
7c00
f000
c000
ENDCHAR
STARTCHAR question
ENCODING 63
SWIDTH 560 0
DWIDTH 14 0
BBX 12 18 1 0
ATTRIBUTES 022b
BITMAP
0700
0700
0700
0000
0700
0700
0700
0e00
1c00
3800
6000
c000
c000
c070
e060
71e0
3fc0
1f00
ENDCHAR
STARTCHAR at
ENCODING 64
SWIDTH 800 0
DWIDTH 20 0
BBX 14 15 3 0
ATTRIBUTES 031a
BITMAP
0030
0020
0060
0040
0080
fffc
0100
0100
0200
0200
fffc
0c00
0800
1000
3000
ENDCHAR
STARTCHAR A
ENCODING 65
SWIDTH 800 0
DWIDTH 20 0
BBX 15 15 2 0
ATTRIBUTES 031a
BITMAP
0100
0100
0100
0100
0100
0100
0100
fffe
0100
0100
0100
0100
0100
0100
0100
ENDCHAR
STARTCHAR B
ENCODING 66
SWIDTH 800 0
DWIDTH 20 0
BBX 14 1 3 7
ATTRIBUTES 031a
BITMAP
fffc
ENDCHAR
STARTCHAR C
ENCODING 67
SWIDTH 720 0
DWIDTH 18 0
BBX 10 11 4 2
ATTRIBUTES 02d3
BITMAP
0c00
0c00
4c40
edc0
7b80
0c00
1e00
edc0
ccc0
0c00
0c00
ENDCHAR
STARTCHAR D
ENCODING 68
SWIDTH 800 0
DWIDTH 20 0
BBX 14 14 3 0
ATTRIBUTES 031a
BITMAP
c00c
6018
3030
1860
0cc0
0780
0300
0780
0480
0840
1020
2010
4008
8004
ENDCHAR
STARTCHAR E
ENCODING 69
SWIDTH 560 0
DWIDTH 14 0
BBX 3 3 6 6
ATTRIBUTES 0242
BITMAP
e0
e0
e0
ENDCHAR
STARTCHAR F
ENCODING 70
SWIDTH 800 0
DWIDTH 20 0
BBX 14 12 3 1
ATTRIBUTES 031a
BITMAP
0300
0300
0000
0000
0000
fffc
0000
0000
0000
0000
0300
0300
ENDCHAR
STARTCHAR G
ENCODING 71
SWIDTH 800 0
DWIDTH 20 0
BBX 15 15 2 0
ATTRIBUTES 031a
BITMAP
0100
0100
0100
0100
0100
fffe
0100
0100
0100
0100
0100
0000
0000
0000
7ffe
ENDCHAR
STARTCHAR H
ENCODING 72
SWIDTH 800 0
DWIDTH 20 0
BBX 15 14 2 0
ATTRIBUTES 031a
BITMAP
7ffe
0000
0000
0100
0100
0100
0100
0100
fffe
0100
0100
0100
0100
0100
ENDCHAR
STARTCHAR I
ENCODING 73
SWIDTH 800 0
DWIDTH 20 0
BBX 14 14 3 0
ATTRIBUTES 031a
BITMAP
0fc0
3230
4218
4208
820c
820c
fffc
820c
820c
820c
4218
3270
1fe0
0fc0
ENDCHAR
STARTCHAR J
ENCODING 74
SWIDTH 800 0
DWIDTH 20 0
BBX 14 14 3 0
ATTRIBUTES 031a
BITMAP
0fc0
1060
2010
4008
800c
8004
fffc
8004
8004
c00c
4008
2010
1860
0fc0
ENDCHAR
STARTCHAR K
ENCODING 75
SWIDTH 800 0
DWIDTH 20 0
BBX 14 14 3 0
ATTRIBUTES 031a
BITMAP
0fc0
1860
2010
5028
884c
8484
8304
8784
8cc4
d86c
7038
2010
1860
0fc0
ENDCHAR
STARTCHAR L
ENCODING 76
SWIDTH 800 0
DWIDTH 20 0
BBX 14 14 3 0
ATTRIBUTES 031a
BITMAP
0fc0
1860
2010
4028
c04c
8084
8104
8204
8404
c80c
5008
2010
1860
0fc0
ENDCHAR
STARTCHAR M
ENCODING 77
SWIDTH 800 0
DWIDTH 20 0
BBX 14 14 3 0
ATTRIBUTES 031a
BITMAP
0fc0
1860
2010
4008
c00c
8704
8704
8704
8004
c00c
4008
2010
1860
0fc0
ENDCHAR
STARTCHAR N
ENCODING 78
SWIDTH 800 0
DWIDTH 20 0
BBX 14 14 3 0
ATTRIBUTES 031a
BITMAP
8004
8004
8004
8004
8004
8004
8004
8004
8004
c00c
4008
2010
1860
0fc0
ENDCHAR
STARTCHAR O
ENCODING 79
SWIDTH 800 0
DWIDTH 20 0
BBX 14 14 3 0
ATTRIBUTES 031a
BITMAP
0fc0
1860
2010
4008
c00c
8004
8004
8004
8004
8004
8004
8004
8004
8004
ENDCHAR
STARTCHAR P
ENCODING 80
SWIDTH 800 0
DWIDTH 20 0
BBX 14 11 3 3
ATTRIBUTES 031a
BITMAP
000c
0070
01c0
0f00
3800
f000
1c00
0700
00e0
0038
0004
ENDCHAR
STARTCHAR Q
ENCODING 81
SWIDTH 800 0
DWIDTH 20 0
BBX 14 11 3 3
ATTRIBUTES 031a
BITMAP
c000
3800
0e00
03c0
0070
003c
00e0
0380
1c00
7000
8000
ENDCHAR
STARTCHAR R
ENCODING 82
SWIDTH 800 0
DWIDTH 20 0
BBX 14 14 3 0
ATTRIBUTES 031a
BITMAP
000c
0070
01c0
0f00
3800
f000
1c00
0700
00e0
0038
0004
0000
0000
fffc
ENDCHAR
STARTCHAR S
ENCODING 83
SWIDTH 800 0
DWIDTH 20 0
BBX 14 14 3 0
ATTRIBUTES 031a
BITMAP
c000
3800
0e00
03c0
0070
003c
00e0
0380
1c00
7000
8000
0000
0000
fffc
ENDCHAR
STARTCHAR T
ENCODING 84
SWIDTH 800 0
DWIDTH 20 0
BBX 14 15 3 0
ATTRIBUTES 031a
BITMAP
000c
0070
01c0
0f00
3800
f000
1c00
0700
80e0
7038
1c04
0380
00e0
003c
0004
ENDCHAR
STARTCHAR U
ENCODING 85
SWIDTH 800 0
DWIDTH 20 0
BBX 14 15 3 0
ATTRIBUTES 031a
BITMAP
c000
3800
0e00
03c0
0070
003c
00e0
0380
1c04
7038
80e0
0700
1c00
f000
8000
ENDCHAR
STARTCHAR V
ENCODING 86
SWIDTH 1080 0
DWIDTH 27 0
BBX 23 14 2 0
ATTRIBUTES 045d
BITMAP
000606
00181c
006070
0181c0
060700
181c00
607000
703800
1c0e00
070380
00c0e0
003038
000c0e
000202
ENDCHAR
STARTCHAR W
ENCODING 87
SWIDTH 1080 0
DWIDTH 27 0
BBX 23 14 2 0
ATTRIBUTES 045d
BITMAP
c04000
703000
1c0c00
070300
00c0c0
003030
000c0c
00181c
006070
0181c0
0e0700
381c00
e07000
804000
ENDCHAR
STARTCHAR X
ENCODING 88
SWIDTH 800 0
DWIDTH 20 0
BBX 14 5 3 7
ATTRIBUTES 031a
BITMAP
8000
8078
4788
7804
0004
ENDCHAR
STARTCHAR Y
ENCODING 89
SWIDTH 800 0
DWIDTH 20 0
BBX 14 9 3 3
ATTRIBUTES 031a
BITMAP
8000
8078
4788
7804
0004
0000
0000
0000
fffc
ENDCHAR
STARTCHAR Z
ENCODING 90
SWIDTH 800 0
DWIDTH 20 0
BBX 15 7 3 4
ATTRIBUTES 031a
BITMAP
403c
43c4
3c02
807a
83c4
4e04
3804
ENDCHAR
STARTCHAR bracketleft
ENCODING 91
SWIDTH 800 0
DWIDTH 20 0
BBX 14 16 3 0
ATTRIBUTES 031a
BITMAP
081c
0810
79b8
8a50
8bd0
8a10
9a10
6990
0000
0000
fffc
0000
0000
0000
0000
fffc
ENDCHAR
STARTCHAR backslash
ENCODING 92
SWIDTH 800 0
DWIDTH 20 0
BBX 14 10 3 2
ATTRIBUTES 031a
BITMAP
fffc
0000
0000
0000
fffc
0000
0000
0000
0000
fffc
ENDCHAR
STARTCHAR bracketright
ENCODING 93
SWIDTH 720 0
DWIDTH 18 0
BBX 15 10 0 1
ATTRIBUTES 02c8
BITMAP
387e
64c2
c2c0
8180
8180
8380
c380
6640
3e22
001c
ENDCHAR
STARTCHAR asciicircum
ENCODING 94
SWIDTH 480 0
DWIDTH 12 0
BBX 12 18 0 -1
ATTRIBUTES 01ee
BITMAP
0780
0fc0
1060
2020
0010
0010
0790
18d0
3070
6030
6020
e020
c060
c040
c0c0
c180
6300
3c00
ENDCHAR
STARTCHAR underscore
ENCODING 95
SWIDTH 800 0
DWIDTH 20 0
BBX 14 14 3 0
ATTRIBUTES 031a
BITMAP
0ffc
1800
2000
4000
c000
8000
8000
8000
8000
c000
4000
2000
1800
0ffc
ENDCHAR
STARTCHAR grave
ENCODING 96
SWIDTH 800 0
DWIDTH 20 0
BBX 14 14 3 0
ATTRIBUTES 031a
BITMAP
ffc0
0060
0010
0008
000c
0004
0004
0004
0004
000c
0008
0010
0060
ffc0
ENDCHAR
STARTCHAR a
ENCODING 97
SWIDTH 800 0
DWIDTH 20 0
BBX 14 14 3 0
ATTRIBUTES 031a
BITMAP
3ffc
6000
4000
8000
8000
8000
8000
c000
6000
3ffc
0000
0000
0000
fffc
ENDCHAR
STARTCHAR b
ENCODING 98
SWIDTH 800 0
DWIDTH 20 0
BBX 14 14 3 0
ATTRIBUTES 031a
BITMAP
fff0
0018
0008
0004
0004
0004
0004
0008
0018
fff0
0000
0000
0000
fffc
ENDCHAR
STARTCHAR c
ENCODING 99
SWIDTH 800 0
DWIDTH 20 0
BBX 14 17 3 -1
ATTRIBUTES 031a
BITMAP
0018
0010
0ffc
1860
2040
40c0
c080
8100
8300
8200
8600
c400
4c00
2800
1800
37fc
2000
ENDCHAR
STARTCHAR d
ENCODING 100
SWIDTH 800 0
DWIDTH 20 0
BBX 14 16 3 -1
ATTRIBUTES 031a
BITMAP
0060
ffc0
00f0
0090
0108
0104
0204
0604
0404
0c04
0808
1808
3010
2060
ff80
4000
ENDCHAR
STARTCHAR e
ENCODING 101
SWIDTH 800 0
DWIDTH 20 0
BBX 14 16 3 -1
ATTRIBUTES 031a
BITMAP
0020
3ffc
6040
4040
8080
8180
8100
8200
c200
6400
1ffc
0800
0800
1000
fffc
6000
ENDCHAR
STARTCHAR f
ENCODING 102
SWIDTH 800 0
DWIDTH 20 0
BBX 14 16 3 -1
ATTRIBUTES 031a
BITMAP
0020
fff0
0078
00cc
0084
0184
0104
0304
0208
0618
fff0
0c00
1800
1000
fffc
6000
ENDCHAR
STARTCHAR g
ENCODING 103
SWIDTH 720 0
DWIDTH 18 0
BBX 14 13 0 0
ATTRIBUTES 02c8
BITMAP
0ffc
1c00
3000
6000
c000
c000
fffc
c000
4000
6000
3000
1800
07fc
ENDCHAR
STARTCHAR h
ENCODING 104
SWIDTH 720 0
DWIDTH 18 0
BBX 14 17 0 -2
ATTRIBUTES 02c8
BITMAP
0018
0030
0ffc
1860
20c0
40c0
c180
c180
fffc
c600
4600
6c00
3800
1c00
17fc
3000
6000
ENDCHAR
STARTCHAR i
ENCODING 105
SWIDTH 720 0
DWIDTH 18 0
BBX 14 13 0 0
ATTRIBUTES 02c8
BITMAP
0ffc
1c00
3000
6000
c000
c000
fffc
c000
4000
6000
3000
1800
07fc
ENDCHAR
STARTCHAR j
ENCODING 106
SWIDTH 560 0
DWIDTH 14 0
BBX 10 16 0 0
ATTRIBUTES 0224
BITMAP
ffc0
0040
0040
0040
0040
0040
0040
7fc0
0040
0040
0040
0040
0040
0040
0040
ffc0
ENDCHAR
STARTCHAR k
ENCODING 107
SWIDTH 440 0
DWIDTH 11 0
BBX 9 12 0 0
ATTRIBUTES 01b6
BITMAP
7800
0e00
0700
0300
0380
0180
7f80
0180
0300
0300
0e00
7800
ENDCHAR
STARTCHAR l
ENCODING 108
SWIDTH 800 0
DWIDTH 20 0
BBX 15 17 0 0
ATTRIBUTES 0336
BITMAP
4008
c010
c018
e01c
700e
3816
3c12
4f20
47c0
43c0
40e0
4070
6038
701c
380c
3804
3004
ENDCHAR
STARTCHAR m
ENCODING 109
SWIDTH 680 0
DWIDTH 17 0
BBX 15 18 0 -1
ATTRIBUTES 02ae
BITMAP
1f02
3fe2
61fc
4030
4000
201c
0010
0038
0038
0018
001c
000c
000e
0004
7c04
9e0c
0fb8
07c0
ENDCHAR
STARTCHAR n
ENCODING 110
SWIDTH 800 0
DWIDTH 20 0
BBX 18 18 0 -1
ATTRIBUTES 031a
BITMAP
1e0e00
231f00
41e380
818180
c18180
e18100
718200
318c00
19fc00
118600
118600
018600
018600
018600
110600
7e0780
180300
080100
ENDCHAR
STARTCHAR o
ENCODING 111
SWIDTH 1000 0
DWIDTH 25 0
BBX 16 18 0 -5
ATTRIBUTES 03da
BITMAP
0200
0400
083c
1042
3183
2203
6403
6803
7806
7186
310c
5918
59e0
4800
8c00
8800
8800
7000
ENDCHAR
STARTCHAR p
ENCODING 112
SWIDTH 480 0
DWIDTH 12 0
BBX 12 22 0 -5
ATTRIBUTES 01f4
BITMAP
0070
0090
0080
0180
0180
0300
0fc0
0300
0300
0200
0600
0600
0600
0600
0c00
0c00
0c00
0800
0800
1800
d000
e000
ENDCHAR
STARTCHAR q
ENCODING 113
SWIDTH 800 0
DWIDTH 20 0
BBX 14 18 3 -4
ATTRIBUTES 031a
BITMAP
0004
000c
0018
0030
0860
0cc0
0380
0300
0780
0c80
1840
3040
6040
fffc
0040
0040
0040
0040
ENDCHAR
STARTCHAR r
ENCODING 114
SWIDTH 800 0
DWIDTH 20 0
BBX 14 15 3 0
ATTRIBUTES 031a
BITMAP
0100
0100
008c
00f8
00e0
0740
1c40
f040
7840
0e40
03c0
0070
009c
0104
0100
ENDCHAR
STARTCHAR s
ENCODING 115
SWIDTH 400 0
DWIDTH 10 0
BBX 1 23 4 -4
ATTRIBUTES 018d
BITMAP
80
80
80
80
80
80
80
80
80
80
80
80
80
80
80
80
80
80
80
80
80
80
80
ENDCHAR
STARTCHAR t
ENCODING 116
SWIDTH 560 0
DWIDTH 14 0
BBX 6 23 4 -4
ATTRIBUTES 0242
BITMAP
84
84
84
84
84
84
84
84
84
84
84
84
84
84
84
84
84
84
84
84
84
84
84
ENDCHAR
STARTCHAR u
ENCODING 117
SWIDTH 640 0
DWIDTH 16 0
BBX 15 16 0 0
ATTRIBUTES 0292
BITMAP
0100
0100
0100
0100
0100
0100
0100
0100
0100
0100
0100
0100
0100
0100
0100
fffe
ENDCHAR
STARTCHAR v
ENCODING 118
SWIDTH 1000 0
DWIDTH 25 0
BBX 19 2 0 0
ATTRIBUTES 03e8
BITMAP
e06060
e06060
ENDCHAR
STARTCHAR w
ENCODING 119
SWIDTH 1000 0
DWIDTH 25 0
BBX 19 3 0 6
ATTRIBUTES 03e8
BITMAP
c06060
e0e060
404020
ENDCHAR
STARTCHAR x
ENCODING 120
SWIDTH 1000 0
DWIDTH 25 0
BBX 3 19 8 -2
ATTRIBUTES 03e8
BITMAP
e0
e0
00
00
00
00
00
00
e0
e0
40
00
00
00
00
00
40
e0
e0
ENDCHAR
STARTCHAR y
ENCODING 121
SWIDTH 1000 0
DWIDTH 25 0
BBX 15 15 2 0
ATTRIBUTES 03e8
BITMAP
0006
000e
0004
0000
0000
0000
0180
0380
0100
0000
0000
0000
e000
e000
4000
ENDCHAR
STARTCHAR z
ENCODING 122
SWIDTH 1000 0
DWIDTH 25 0
BBX 15 15 2 0
ATTRIBUTES 03e8
BITMAP
c000
c000
c000
0000
0000
0000
0180
0380
0100
0000
0000
0000
0006
000e
0004
ENDCHAR
STARTCHAR braceleft
ENCODING 123
SWIDTH 920 0
DWIDTH 23 0
BBX 17 5 3 5
ATTRIBUTES 0388
BITMAP
780f00
c80f80
8fff80
880f80
780f00
ENDCHAR
STARTCHAR bar
ENCODING 124
SWIDTH 920 0
DWIDTH 23 0
BBX 17 5 3 5
ATTRIBUTES 0388
BITMAP
780f00
f80980
fff080
f80980
780f00
ENDCHAR
STARTCHAR braceright
ENCODING 125
SWIDTH 680 0
DWIDTH 17 0
BBX 17 5 0 5
ATTRIBUTES 02bb
BITMAP
000200
000300
ffff80
000300
000200
ENDCHAR
STARTCHAR asciitilde
ENCODING 126
SWIDTH 520 0
DWIDTH 13 0
BBX 13 13 0 0
ATTRIBUTES 01f5
BITMAP
fff8
8008
8008
8008
8008
8008
8008
8008
8008
8008
8008
8008
fff8
ENDCHAR
STARTCHAR C000177
ENCODING 127
SWIDTH 520 0
DWIDTH 13 0
BBX 13 13 0 0
ATTRIBUTES 01f5
BITMAP
fff8
8008
8008
8008
8008
8008
8008
8008
8008
8008
8008
8008
fff8
ENDCHAR
STARTCHAR C000200
ENCODING 128
SWIDTH 560 0
DWIDTH 14 0
BBX 9 24 3 -4
ATTRIBUTES 0242
BITMAP
0700
0d80
0900
0800
1800
1800
1800
1800
1800
1800
1800
1800
1800
1800
1800
1800
1800
1800
1800
1800
1000
d000
f000
e000
ENDCHAR
STARTCHAR C000201
ENCODING 129
SWIDTH 840 0
DWIDTH 21 0
BBX 16 24 3 -4
ATTRIBUTES 0356
BITMAP
070e
0d9b
0912
0830
1830
1830
1830
1830
1830
1830
1830
1830
1830
1830
1830
1830
1830
1830
1830
1830
1020
d1a0
f1e0
e1c0
ENDCHAR
STARTCHAR C000202
ENCODING 130
SWIDTH 1080 0
DWIDTH 27 0
BBX 23 24 3 -4
ATTRIBUTES 046c
BITMAP
070e1c
0d9b34
091224
083020
183060
183060
183060
183060
183060
183060
183060
183060
183060
183060
183060
183060
183060
183060
183060
183060
102040
d1a340
f1e380
e1c380
ENDCHAR
STARTCHAR C000203
ENCODING 131
SWIDTH 600 0
DWIDTH 15 0
BBX 10 24 3 -4
ATTRIBUTES 0265
BITMAP
0380
0580
0580
0400
0c00
0c00
0c00
1e00
6d80
4c80
8c40
8c40
8c40
8c40
4c80
6d80
1e00
0c00
0c00
0c00
0800
4800
5000
7000
ENDCHAR
STARTCHAR C000204
ENCODING 132
SWIDTH 880 0
DWIDTH 22 0
BBX 17 24 3 -4
ATTRIBUTES 037b
BITMAP
038700
058b00
058b00
041800
0c1800
0c1800
0c1800
0ff800
3c1c00
6c1a00
cc1900
8c1880
8c1880
cc1900
6c1a00
3c1c00
0ff800
0c1800
0c1800
0c1000
081000
499000
51a000
71c000
ENDCHAR
STARTCHAR C000205
ENCODING 133
SWIDTH 1120 0
DWIDTH 28 0
BBX 24 24 3 -4
ATTRIBUTES 048f
BITMAP
03870e
058b16
058b16
041810
0c1830
0c1830
0c1830
0dffb0
1e1878
2c1834
4c1832
8c1831
8c1831
4c1832
2c1834
1e1878
0dffb0
0c1830
0c1830
0c1020
081020
499320
51a340
71c380
ENDCHAR
STARTCHAR C000206
ENCODING 134
SWIDTH 520 0
DWIDTH 13 0
BBX 13 21 1 0
ATTRIBUTES 0215
BITMAP
0008
0008
0008
0010
0010
0010
0020
0020
0020
0020
0040
0040
2040
f080
1080
1880
0900
0d00
0500
0600
0200
ENDCHAR
STARTCHAR C000207
ENCODING 135
SWIDTH 520 0
DWIDTH 13 0
BBX 13 21 1 0
ATTRIBUTES 0215
BITMAP
0008
0008
0008
0010
0010
0010
0010
0020
0020
0020
0020
0040
7040
1040
1840
0880
0c80
0480
0280
0300
0100
ENDCHAR
STARTCHAR C000210
ENCODING 136
SWIDTH 520 0
DWIDTH 13 0
BBX 13 20 0 0
ATTRIBUTES 0202
BITMAP
0008
0008
0010
0010
0010
0020
2020
e020
2040
3040
1040
10c0
0880
0880
0980
0500
0500
0700
0200
0200
ENDCHAR
STARTCHAR C000211
ENCODING 137
SWIDTH 400 0
DWIDTH 10 0
BBX 6 21 1 0
ATTRIBUTES 0196
BITMAP
04
04
04
04
04
04
04
04
04
04
04
04
44
c4
24
24
14
14
0c
0c
04
ENDCHAR
STARTCHAR C000212
ENCODING 138
SWIDTH 800 0
DWIDTH 20 0
BBX 18 22 1 -3
ATTRIBUTES 0336
BITMAP
fc0fc0
300300
300300
300300
300300
300300
300300
300300
300300
300300
300300
300300
300300
300300
300300
300300
300300
300300
300300
300300
300300
ffffc0
ENDCHAR
STARTCHAR C000213
ENCODING 139
SWIDTH 800 0
DWIDTH 20 0
BBX 18 22 1 -3
ATTRIBUTES 0336
BITMAP
ffffc0
300300
300300
300300
300300
300300
300300
300300
300300
300300
300300
300300
300300
300300
300300
300300
300300
300300
300300
300300
300300
fc0fc0
ENDCHAR
STARTCHAR C000214
ENCODING 140
SWIDTH 720 0
DWIDTH 18 0
BBX 17 21 0 -2
ATTRIBUTES 02c8
BITMAP
ffff00
700300
380100
180100
1c0000
0e0000
070000
038000
01c000
00c000
008000
018000
010000
020000
040000
080000
180080
300080
200180
7fff00
ffff00
ENDCHAR
STARTCHAR C000215
ENCODING 141
SWIDTH 800 0
DWIDTH 20 0
BBX 21 22 0 -2
ATTRIBUTES 0334
BITMAP
fffff8
700010
780030
380020
380060
3c0040
1c00c0
1e0080
0e0180
0f0100
070300
078200
038600
038400
03cc00
01c800
01f800
00f000
00f000
006000
006000
004000
ENDCHAR
STARTCHAR C000216
ENCODING 142
SWIDTH 840 0
DWIDTH 21 0
BBX 22 22 -1 -2
ATTRIBUTES 0340
BITMAP
e0001c
600018
700038
700038
380030
380070
1fffe0
1fffe0
0c00c0
0e00c0
0e01c0
070180
070380
030300
038300
018600
01c600
01ce00
00ec00
00fc00
007800
007800
ENDCHAR
STARTCHAR C000217
ENCODING 143
SWIDTH 1640 0
DWIDTH 41 0
BBX 41 21 1 0
ATTRIBUTES 06a3
BITMAP
381c00000000
f81c00000000
380800000000
380000000000
380000000000
380000000000
380000000000
380c0c783c00
383c3cfc7c00
381c0f0f9e00
381c0c060e00
381c0c060e00
381c0c060e00
381c0c060e00
381c0c060e00
381c0c060e00
381c0c060e00
381c0c060e00
381c0c060e00
381c0c060e00
fe7f3f1fbf80
ENDCHAR
STARTCHAR C000220
ENCODING 144
SWIDTH 320 0
DWIDTH 8 0
BBX 7 4 1 14
ATTRIBUTES 014c
BITMAP
38
7c
44
82
ENDCHAR
STARTCHAR C000221
ENCODING 145
SWIDTH 320 0
DWIDTH 8 0
BBX 7 4 1 14
ATTRIBUTES 014c
BITMAP
82
44
38
38
ENDCHAR
STARTCHAR C000222
ENCODING 146
SWIDTH 320 0
DWIDTH 8 0
BBX 7 4 1 14
ATTRIBUTES 014c
BITMAP
82
44
38
38
ENDCHAR
STARTCHAR C000223
ENCODING 147
SWIDTH 320 0
DWIDTH 8 0
BBX 4 4 3 14
ATTRIBUTES 014c
BITMAP
70
60
40
80
ENDCHAR
STARTCHAR C000224
ENCODING 148
SWIDTH 320 0
DWIDTH 8 0
BBX 4 4 1 14
ATTRIBUTES 014c
BITMAP
e0
60
20
10
ENDCHAR
STARTCHAR C000225
ENCODING 149
SWIDTH 320 0
DWIDTH 8 0
BBX 8 3 0 15
ATTRIBUTES 014c
BITMAP
71
fd
8e
ENDCHAR
STARTCHAR C000226
ENCODING 150
SWIDTH 480 0
DWIDTH 12 0
BBX 12 1 0 17
ATTRIBUTES 01f4
BITMAP
fff0
ENDCHAR
STARTCHAR C000227
ENCODING 151
SWIDTH 480 0
DWIDTH 12 0
BBX 12 5 0 15
ATTRIBUTES 01f4
BITMAP
0040
0060
fff0
0060
0040
ENDCHAR
STARTCHAR C000230
ENCODING 152
SWIDTH 280 0
DWIDTH 7 0
BBX 2 3 2 15
ATTRIBUTES 0108
BITMAP
c0
c0
40
ENDCHAR
STARTCHAR C000231
ENCODING 153
SWIDTH 280 0
DWIDTH 7 0
BBX 6 2 0 16
ATTRIBUTES 0108
BITMAP
cc
ec
ENDCHAR
STARTCHAR C000232
ENCODING 154
SWIDTH 400 0
DWIDTH 10 0
BBX 10 2 0 16
ATTRIBUTES 01a3
BITMAP
ccc0
ecc0
ENDCHAR
STARTCHAR C000233
ENCODING 155
SWIDTH 240 0
DWIDTH 6 0
BBX 6 6 0 12
ATTRIBUTES 0103
BITMAP
70
48
84
84
48
30
ENDCHAR
STARTCHAR C000234
ENCODING 156
SWIDTH 800 0
DWIDTH 20 0
BBX 14 14 3 0
ATTRIBUTES 031a
BITMAP
0200
0300
0700
0480
0c80
0840
1840
1020
3020
2010
6010
4008
c008
8004
ENDCHAR
STARTCHAR C000235
ENCODING 157
SWIDTH 800 0
DWIDTH 20 0
BBX 14 14 3 0
ATTRIBUTES 031a
BITMAP
800c
4008
4018
2010
2030
1020
1060
0840
08c0
0480
0580
0300
0300
0100
ENDCHAR
STARTCHAR C000236
ENCODING 158
SWIDTH 520 0
DWIDTH 13 0
BBX 13 13 0 0
ATTRIBUTES 01f5
BITMAP
fff8
8008
8008
8008
8008
8008
8008
8008
8008
8008
8008
8008
fff8
ENDCHAR
STARTCHAR C000237
ENCODING 159
SWIDTH 520 0
DWIDTH 13 0
BBX 13 13 0 0
ATTRIBUTES 01f5
BITMAP
fff8
8008
8008
8008
8008
8008
8008
8008
8008
8008
8008
8008
fff8
ENDCHAR
STARTCHAR nobreakspace
ENCODING 160
SWIDTH 400 0
DWIDTH 10 0
BBX 5 27 1 -5
ATTRIBUTES 017e
BITMAP
08
10
20
20
20
20
20
20
10
10
10
10
20
c0
20
10
10
10
10
20
20
20
20
20
20
10
08
ENDCHAR
STARTCHAR exclamdown
ENCODING 161
SWIDTH 400 0
DWIDTH 10 0
BBX 5 27 2 -5
ATTRIBUTES 017e
BITMAP
80
40
20
20
20
20
20
20
40
40
40
40
20
38
20
40
40
40
40
20
20
20
20
20
20
40
80
ENDCHAR
STARTCHAR cent
ENCODING 162
SWIDTH 320 0
DWIDTH 8 0
BBX 4 25 2 -4
ATTRIBUTES 0137
BITMAP
10
10
20
20
40
40
40
40
c0
80
80
80
80
80
80
80
c0
c0
40
40
40
20
20
10
10
ENDCHAR
STARTCHAR sterling
ENCODING 163
SWIDTH 320 0
DWIDTH 8 0
BBX 5 25 1 -4
ATTRIBUTES 0137
BITMAP
40
40
20
20
10
10
10
10
18
08
08
08
08
08
08
08
08
10
10
10
30
20
20
40
80
ENDCHAR
STARTCHAR currency
ENCODING 164
SWIDTH 320 0
DWIDTH 8 0
BBX 7 24 1 -3
ATTRIBUTES 014f
BITMAP
02
04
04
08
08
10
10
20
20
40
40
80
80
40
40
20
10
10
08
08
04
04
02
02
ENDCHAR
STARTCHAR yen
ENCODING 165
SWIDTH 320 0
DWIDTH 8 0
BBX 7 24 1 -3
ATTRIBUTES 014f
BITMAP
80
40
40
20
20
10
10
08
08
04
02
02
02
04
04
08
08
10
10
20
20
40
40
80
ENDCHAR
STARTCHAR brokenbar
ENCODING 166
SWIDTH 280 0
DWIDTH 7 0
BBX 4 25 2 -4
ATTRIBUTES 0119
BITMAP
f0
80
80
80
80
80
80
80
80
80
80
80
80
80
80
80
80
80
80
80
80
80
80
80
f0
ENDCHAR
STARTCHAR section
ENCODING 167
SWIDTH 280 0
DWIDTH 7 0
BBX 4 25 1 -4
ATTRIBUTES 0119
BITMAP
f0
10
10
10
10
10
10
10
10
10
10
10
10
10
10
10
10
10
10
10
10
10
10
10
f0
ENDCHAR
STARTCHAR diaeresis
ENCODING 168
SWIDTH 360 0
DWIDTH 9 0
BBX 4 10 4 0
ATTRIBUTES 0157
BITMAP
70
c0
80
80
80
80
80
80
80
80
ENDCHAR
STARTCHAR copyright
ENCODING 169
SWIDTH 360 0
DWIDTH 9 0
BBX 4 21 1 0
ATTRIBUTES 0157
BITMAP
10
10
10
10
10
10
10
10
10
20
c0
20
10
10
10
10
10
10
10
10
10
ENDCHAR
STARTCHAR ordfeminine
ENCODING 170
SWIDTH 360 0
DWIDTH 9 0
BBX 4 11 4 0
ATTRIBUTES 0157
BITMAP
80
80
80
80
80
80
80
80
80
40
30
ENDCHAR
STARTCHAR guillemotleft
ENCODING 171
SWIDTH 360 0
DWIDTH 9 0
BBX 4 10 1 0
ATTRIBUTES 0157
BITMAP
e0
30
10
10
10
10
10
10
10
10
ENDCHAR
STARTCHAR notsign
ENCODING 172
SWIDTH 360 0
DWIDTH 9 0
BBX 4 21 4 0
ATTRIBUTES 0157
BITMAP
80
80
80
80
80
80
80
80
80
80
70
40
80
80
80
80
80
80
80
80
80
ENDCHAR
STARTCHAR hyphen
ENCODING 173
SWIDTH 360 0
DWIDTH 9 0
BBX 4 11 1 0
ATTRIBUTES 0157
BITMAP
10
10
10
10
10
10
10
10
10
20
c0
ENDCHAR
STARTCHAR registered
ENCODING 174
SWIDTH 360 0
DWIDTH 9 0
BBX 1 9 4 0
ATTRIBUTES 0157
BITMAP
80
80
80
80
80
80
80
80
80
ENDCHAR
STARTCHAR macron
ENCODING 175
SWIDTH 400 0
DWIDTH 10 0
BBX 6 21 3 0
ATTRIBUTES 018d
BITMAP
04
04
08
08
10
10
20
20
60
40
40
40
40
c0
c0
c0
c0
c0
80
80
80
ENDCHAR
STARTCHAR degree
ENCODING 176
SWIDTH 400 0
DWIDTH 10 0
BBX 1 9 3 0
ATTRIBUTES 018d
BITMAP
80
80
80
80
80
80
80
80
80
ENDCHAR
STARTCHAR plusminus
ENCODING 177
SWIDTH 400 0
DWIDTH 10 0
BBX 6 21 3 0
ATTRIBUTES 018d
BITMAP
80
80
80
c0
c0
c0
c0
c0
40
40
40
40
60
20
20
10
10
08
08
04
04
ENDCHAR
STARTCHAR twosuperior
ENCODING 178
SWIDTH 400 0
DWIDTH 10 0
BBX 6 21 1 0
ATTRIBUTES 018d
BITMAP
80
80
40
40
20
20
10
10
10
10
08
08
0c
0c
0c
0c
0c
0c
0c
0c
0c
ENDCHAR
STARTCHAR threesuperior
ENCODING 179
SWIDTH 400 0
DWIDTH 10 0
BBX 1 9 6 0
ATTRIBUTES 018d
BITMAP
80
80
80
80
80
80
80
80
80
ENDCHAR
STARTCHAR acute
ENCODING 180
SWIDTH 400 0
DWIDTH 10 0
BBX 6 21 1 0
ATTRIBUTES 018d
BITMAP
04
04
04
0c
0c
0c
0c
0c
08
08
08
08
18
10
10
30
20
20
40
80
80
ENDCHAR
STARTCHAR mu
ENCODING 181
SWIDTH 360 0
DWIDTH 9 0
BBX 5 21 3 0
ATTRIBUTES 0169
BITMAP
f8
80
80
80
80
80
80
80
80
80
80
80
80
80
80
80
80
80
80
80
80
ENDCHAR
STARTCHAR paragraph
ENCODING 182
SWIDTH 360 0
DWIDTH 9 0
BBX 1 9 3 0
ATTRIBUTES 0169
BITMAP
80
80
80
80
80
80
80
80
80
ENDCHAR
STARTCHAR periodcentered
ENCODING 183
SWIDTH 360 0
DWIDTH 9 0
BBX 5 21 3 0
ATTRIBUTES 0169
BITMAP
80
80
80
80
80
80
80
80
80
80
80
80
80
80
80
80
80
80
80
80
f8
ENDCHAR
STARTCHAR cedilla
ENCODING 184
SWIDTH 360 0
DWIDTH 9 0
BBX 5 21 1 0
ATTRIBUTES 0169
BITMAP
f8
08
08
08
08
08
08
08
08
08
08
08
08
08
08
08
08
08
08
08
08
ENDCHAR
STARTCHAR onesuperior
ENCODING 185
SWIDTH 360 0
DWIDTH 9 0
BBX 1 9 5 0
ATTRIBUTES 0169
BITMAP
80
80
80
80
80
80
80
80
80
ENDCHAR
STARTCHAR masculine
ENCODING 186
SWIDTH 360 0
DWIDTH 9 0
BBX 5 21 1 0
ATTRIBUTES 0169
BITMAP
08
08
08
08
08
08
08
08
08
08
08
08
08
08
08
08
08
08
08
08
f8
ENDCHAR
STARTCHAR guillemotright
ENCODING 187
SWIDTH 520 0
DWIDTH 13 0
BBX 13 13 0 0
ATTRIBUTES 01f5
BITMAP
fff8
8008
8008
8008
8008
8008
8008
8008
8008
8008
8008
8008
fff8
ENDCHAR
STARTCHAR onequarter
ENCODING 188
SWIDTH 360 0
DWIDTH 9 0
BBX 1 9 5 0
ATTRIBUTES 0169
BITMAP
80
80
80
80
80
80
80
80
80
ENDCHAR
STARTCHAR onehalf
ENCODING 189
SWIDTH 440 0
DWIDTH 11 0
BBX 9 26 1 -7
ATTRIBUTES 01b2
BITMAP
0080
0080
0080
0100
0100
0100
0200
0200
0200
0400
0400
0400
0800
0800
0800
1000
1000
1000
2000
2000
2000
4000
4000
4000
8000
8000
ENDCHAR
STARTCHAR threequarters
ENCODING 190
SWIDTH 440 0
DWIDTH 11 0
BBX 9 26 1 -7
ATTRIBUTES 01b2
BITMAP
8000
8000
4000
4000
4000
2000
2000
2000
1000
1000
1000
0800
0800
0800
0400
0400
0400
0200
0200
0200
0100
0100
0100
0100
0080
0080
ENDCHAR
STARTCHAR questiondown
ENCODING 191
SWIDTH 880 0
DWIDTH 22 0
BBX 18 18 2 0
ATTRIBUTES 037b
BITMAP
ffff00
800380
8003c0
8003c0
8003c0
8003c0
8003c0
8003c0
8003c0
8003c0
8003c0
8003c0
8003c0
8003c0
ffffc0
ffffc0
7fffc0
3fffc0
ENDCHAR
STARTCHAR Agrave
ENCODING 192
SWIDTH 280 0
DWIDTH 7 0
BBX 4 25 2 -4
ATTRIBUTES 0119
BITMAP
f0
80
80
80
80
80
80
80
80
80
80
80
80
80
80
80
80
80
80
80
80
80
80
80
80
ENDCHAR
STARTCHAR Aacute
ENCODING 193
SWIDTH 280 0
DWIDTH 7 0
BBX 4 25 2 -4
ATTRIBUTES 0119
BITMAP
80
80
80
80
80
80
80
80
80
80
80
80
80
80
80
80
80
80
80
80
80
80
80
80
f0
ENDCHAR
STARTCHAR Acircumflex
ENCODING 194
SWIDTH 280 0
DWIDTH 7 0
BBX 4 25 1 -4
ATTRIBUTES 0119
BITMAP
f0
10
10
10
10
10
10
10
10
10
10
10
10
10
10
10
10
10
10
10
10
10
10
10
10
ENDCHAR
STARTCHAR Atilde
ENCODING 195
SWIDTH 280 0
DWIDTH 7 0
BBX 4 25 1 -4
ATTRIBUTES 0119
BITMAP
10
10
10
10
10
10
10
10
10
10
10
10
10
10
10
10
10
10
10
10
10
10
10
10
f0
ENDCHAR
STARTCHAR Adiaeresis
ENCODING 196
SWIDTH 520 0
DWIDTH 13 0
BBX 13 13 0 0
ATTRIBUTES 01f5
BITMAP
fff8
8008
8008
8008
8008
8008
8008
8008
8008
8008
8008
8008
fff8
ENDCHAR
STARTCHAR Aring
ENCODING 197
SWIDTH 400 0
DWIDTH 10 0
BBX 1 9 6 0
ATTRIBUTES 0196
BITMAP
80
80
80
80
80
80
80
80
80
ENDCHAR
STARTCHAR AE
ENCODING 198
SWIDTH 640 0
DWIDTH 16 0
BBX 16 18 0 0
ATTRIBUTES 027e
BITMAP
0fff
0703
0703
0700
0700
0600
0600
0e00
0e00
0e00
0c00
1c00
1c00
1c00
1c00
3800
3800
fe00
ENDCHAR
STARTCHAR Ccedilla
ENCODING 199
SWIDTH 800 0
DWIDTH 20 0
BBX 17 18 1 0
ATTRIBUTES 0318
BITMAP
001000
003800
003800
00f800
009c00
011c00
011c00
021e00
040e00
040e00
080e00
100700
200700
200700
400780
800380
ffff80
ffff80
ENDCHAR
STARTCHAR Egrave
ENCODING 200
SWIDTH 840 0
DWIDTH 21 0
BBX 18 19 1 0
ATTRIBUTES 0340
BITMAP
007c00
038700
060380
1c0380
1801c0
3801c0
3001c0
7209c0
7209c0
e3f9c0
e21b80
e21380
e41380
e00700
e00600
700e00
701800
387000
0f8000
ENDCHAR
STARTCHAR Eacute
ENCODING 201
SWIDTH 840 0
DWIDTH 21 0
BBX 19 18 0 0
ATTRIBUTES 0338
BITMAP
000c00
000c00
001c00
002c00
002e00
004e00
008e00
008e00
010600
030700
020700
040700
040300
080380
100380
100380
200380
f80fe0
ENDCHAR
STARTCHAR Ecircumflex
ENCODING 202
SWIDTH 720 0
DWIDTH 18 0
BBX 17 18 0 0
ATTRIBUTES 02cc
BITMAP
07ff80
0fff80
0c0180
080100
000000
000000
040200
0c0600
0ffe00
0c0400
080400
000000
000000
000000
400300
400200
fffe00
fffe00
ENDCHAR
STARTCHAR Ediaeresis
ENCODING 203
SWIDTH 880 0
DWIDTH 22 0
BBX 22 18 0 0
ATTRIBUTES 0369
BITMAP
0ffffc
070070
070070
0700e0
0700e0
0600e0
0600e0
0e00c0
0e01c0
0e01c0
0c01c0
1c0180
1c0180
1c0380
1c0380
180380
380380
fe1fc0
ENDCHAR
STARTCHAR Igrave
ENCODING 204
SWIDTH 720 0
DWIDTH 18 0
BBX 18 18 0 0
ATTRIBUTES 02ce
BITMAP
0fffc0
0f00c0
0780c0
038000
03c000
01e000
00e000
007000
007800
002000
00c000
010000
060000
080000
300300
400200
fffe00
fffe00
ENDCHAR
STARTCHAR Iacute
ENCODING 205
SWIDTH 680 0
DWIDTH 17 0
BBX 15 18 3 0
ATTRIBUTES 02bd
BITMAP
e002
700c
3810
1820
1c40
1c80
0d00
0d00
0e00
0e00
0e00
0c00
0c00
0c00
1c00
1c00
1800
fe00
ENDCHAR
STARTCHAR Icircumflex
ENCODING 206
SWIDTH 760 0
DWIDTH 19 0
BBX 17 18 1 0
ATTRIBUTES 02ea
BITMAP
01fc00
007000
00e000
00e000
07fe00
18c700
30c380
70c380
e1c380
e1c380
e18700
e18600
718c00
3ff000
038000
038000
070000
1fc000
ENDCHAR
STARTCHAR Idiaeresis
ENCODING 207
SWIDTH 800 0
DWIDTH 20 0
BBX 17 18 3 0
ATTRIBUTES 0322
BITMAP
cfe380
638600
638c00
638c00
631c00
631800
673800
673000
376000
1f8000
060000
0e0000
0e0000
0e0000
0c0000
0c0000
1c0000
7f0000
ENDCHAR
STARTCHAR ETH
ENCODING 208
SWIDTH 880 0
DWIDTH 22 0
BBX 20 19 1 0
ATTRIBUTES 0379
BITMAP
003f00
01c3c0
0380e0
0600e0
0e0070
1c0070
1c0070
380070
380070
3800e0
3800e0
1800c0
180180
1c0300
0c0600
460440
c208c0
fe1fc0
fe1fc0
ENDCHAR
STARTCHAR Ntilde
ENCODING 209
SWIDTH 840 0
DWIDTH 21 0
BBX 16 14 3 0
ATTRIBUTES 0343
BITMAP
0100
07c6
08c6
10ce
306c
7068
6078
e030
e030
e078
e098
e11c
760e
380e
ENDCHAR
STARTCHAR Ograve
ENCODING 210
SWIDTH 680 0
DWIDTH 17 0
BBX 14 25 1 -5
ATTRIBUTES 02a5
BITMAP
00f0
011c
021c
061c
0e1c
0c18
0c18
0c20
1c40
1fe0
1870
1838
1818
3818
3818
3018
3010
3020
7840
7f80
6000
6000
6000
e000
e000
ENDCHAR
STARTCHAR Oacute
ENCODING 211
SWIDTH 680 0
DWIDTH 17 0
BBX 15 18 1 -5
ATTRIBUTES 02b2
BITMAP
7806
3c06
0e0c
0e08
0608
0610
0720
0740
0740
0380
0300
0700
0b00
3300
2300
4600
4c00
3800
ENDCHAR
STARTCHAR Ocircumflex
ENCODING 212
SWIDTH 640 0
DWIDTH 16 0
BBX 13 20 2 0
ATTRIBUTES 0290
BITMAP
03e0
0438
0c08
0e00
0700
0700
0380
01c0
07e0
08e0
1070
3070
7070
e070
e070
e0e0
e0e0
61c0
7180
1e00
ENDCHAR
STARTCHAR Otilde
ENCODING 213
SWIDTH 520 0
DWIDTH 13 0
BBX 11 13 1 0
ATTRIBUTES 021e
BITMAP
03e0
0c20
1800
3000
7000
6000
ff80
e000
e000
e000
f000
7040
1f80
ENDCHAR
STARTCHAR Odiaeresis
ENCODING 214
SWIDTH 680 0
DWIDTH 17 0
BBX 16 25 2 -5
ATTRIBUTES 02ae
BITMAP
0002
001e
807e
e1f8
7fe0
0600
0c00
1c00
1800
3800
7000
7000
7000
e000
e000
e000
e000
f000
7fe0
1ff8
0038
0018
0010
0c60
0f80
ENDCHAR
STARTCHAR multiply
ENCODING 215
SWIDTH 680 0
DWIDTH 17 0
BBX 13 18 2 -4
ATTRIBUTES 02ac
BITMAP
70e0
73f0
3638
3818
3038
3038
7038
7030
6030
6070
6070
e070
e060
c060
00e0
00e0
00c0
00c0
ENDCHAR
STARTCHAR Ooblique
ENCODING 216
SWIDTH 720 0
DWIDTH 18 0
BBX 14 19 2 0
ATTRIBUTES 02d0
BITMAP
01f0
0238
0418
0c1c
181c
181c
301c
701c
701c
7ffc
e038
e038
e030
e070
e060
e0c0
6080
7300
3c00
ENDCHAR
STARTCHAR Ugrave
ENCODING 217
SWIDTH 400 0
DWIDTH 10 0
BBX 6 13 2 0
ATTRIBUTES 0191
BITMAP
30
70
70
70
60
60
e0
e0
e0
c0
c0
64
3c
ENDCHAR
STARTCHAR Uacute
ENCODING 218
SWIDTH 640 0
DWIDTH 16 0
BBX 14 13 2 0
ATTRIBUTES 028e
BITMAP
181c
383c
3860
30c0
3100
3200
7700
7b80
7180
61c0
60c0
e0e0
e070
ENDCHAR
STARTCHAR Ucircumflex
ENCODING 219
SWIDTH 680 0
DWIDTH 17 0
BBX 14 19 1 0
ATTRIBUTES 02b2
BITMAP
1e00
1e00
0700
0300
0380
0380
0180
03c0
05c0
04c0
08c0
10e0
10e0
2060
2070
4070
4030
c038
e01c
ENDCHAR
STARTCHAR Udiaeresis
ENCODING 220
SWIDTH 680 0
DWIDTH 17 0
BBX 14 18 1 -5
ATTRIBUTES 02b4
BITMAP
1c0c
1c1c
1818
1818
1818
3818
3838
3038
3030
3070
78f0
7fb0
7e38
6000
6000
e000
e000
c000
ENDCHAR
STARTCHAR Yacute
ENCODING 221
SWIDTH 680 0
DWIDTH 17 0
BBX 14 13 1 0
ATTRIBUTES 02b2
BITMAP
701c
780c
1808
1c18
0c10
0c10
0c20
0c40
0e80
0e80
0f00
0600
0400
ENDCHAR
STARTCHAR THORN
ENCODING 222
SWIDTH 640 0
DWIDTH 16 0
BBX 13 25 2 -5
ATTRIBUTES 027f
BITMAP
4020
c1f0
3fc0
0c00
1800
3800
3800
1c00
0e60
07f0
0d80
1800
3000
6000
e000
e000
e000
f000
7fc0
3fe0
00e0
0060
0040
1080
3f00
ENDCHAR
STARTCHAR ssharp
ENCODING 223
SWIDTH 640 0
DWIDTH 16 0
BBX 13 14 2 0
ATTRIBUTES 0289
BITMAP
03c0
0c70
1870
3038
7038
7038
e038
e038
e070
e070
e060
60c0
7180
1e00
ENDCHAR
STARTCHAR agrave
ENCODING 224
SWIDTH 840 0
DWIDTH 21 0
BBX 18 13 2 0
ATTRIBUTES 0354
BITMAP
7fffc0
ffffc0
8c0c00
0c0c00
0c0c00
1c1c00
1c1800
181800
181800
181800
381800
381800
300c00
ENDCHAR
STARTCHAR aacute
ENCODING 225
SWIDTH 640 0
DWIDTH 16 0
BBX 15 19 1 -5
ATTRIBUTES 0294
BITMAP
00f8
031c
060e
0c0e
0c0e
180e
180c
180c
381c
3818
3010
3020
78c0
7f00
7000
6000
6000
e000
e000
ENDCHAR
STARTCHAR acircumflex
ENCODING 226
SWIDTH 760 0
DWIDTH 19 0
BBX 18 13 2 0
ATTRIBUTES 0306
BITMAP
07ffc0
083fc0
103000
303800
603800
603800
e03800
e07000
e07000
e06000
60c000
718000
1e0000
ENDCHAR
STARTCHAR atilde
ENCODING 227
SWIDTH 680 0
DWIDTH 17 0
BBX 14 13 2 0
ATTRIBUTES 02a3
BITMAP
7ffc
fffc
8300
0300
0300
0700
0600
0600
0600
0600
0600
0600
0300
ENDCHAR
STARTCHAR adiaeresis
ENCODING 228
SWIDTH 640 0
DWIDTH 16 0
BBX 12 14 2 0
ATTRIBUTES 0292
BITMAP
7070
6070
6070
6030
6030
e030
c030
c030
c020
c060
c040
c080
7100
3e00
ENDCHAR
STARTCHAR aring
ENCODING 229
SWIDTH 880 0
DWIDTH 22 0
BBX 18 24 2 -5
ATTRIBUTES 036c
BITMAP
003000
003000
003000
007000
007000
006000
07fc00
1c6700
38e180
70e1c0
e0e0c0
c0e0c0
c0c0c0
c1c0c0
c1c180
61c380
31c700
1dbc00
03c000
038000
038000
030000
030000
030000
ENDCHAR
STARTCHAR ae
ENCODING 230
SWIDTH 680 0
DWIDTH 17 0
BBX 15 18 1 -5
ATTRIBUTES 02bb
BITMAP
3c0e
3c0e
0e0c
0618
0710
0330
03e0
03c0
0180
03c0
05c0
08c0
10e0
3060
7070
6030
e038
e038
ENDCHAR
STARTCHAR ccedilla
ENCODING 231
SWIDTH 920 0
DWIDTH 23 0
BBX 18 21 2 -5
ATTRIBUTES 038e
BITMAP
007000
006000
006000
6060c0
60e0c0
60e1c0
e0c1c0
e0c180
c0c180
c1c180
c1c380
c18300
c18600
618400
339800
0fe000
030000
030000
030000
070000
070000
ENDCHAR
STARTCHAR egrave
ENCODING 232
SWIDTH 1000 0
DWIDTH 25 0
BBX 21 14 2 0
ATTRIBUTES 03e4
BITMAP
0000e0
1c0070
183830
303838
707818
607018
607018
c06018
c06018
c06010
c0f030
60b020
6318c0
3c0f00
ENDCHAR
STARTCHAR eacute
ENCODING 233
SWIDTH 520 0
DWIDTH 13 0
BBX 10 13 2 0
ATTRIBUTES 0217
BITMAP
07c0
3840
3000
3000
3c00
0f80
1000
6000
c000
c000
e000
7180
3e00
ENDCHAR
STARTCHAR ecircumflex
ENCODING 234
SWIDTH 720 0
DWIDTH 18 0
BBX 16 20 1 0
ATTRIBUTES 02cc
BITMAP
01f0
0238
0438
0c1c
081c
181c
181c
181c
1c1c
1fff
07ff
0038
0030
0030
6020
7040
3840
1c80
1f00
0e00
ENDCHAR
STARTCHAR ediaeresis
ENCODING 235
SWIDTH 1000 0
DWIDTH 25 0
BBX 23 13 1 0
ATTRIBUTES 03e2
BITMAP
7ffffe
fffffe
840030
080038
181818
183818
303818
303818
303010
303030
383020
1cdcc0
0f0f00
ENDCHAR
STARTCHAR igrave
ENCODING 236
SWIDTH 680 0
DWIDTH 17 0
BBX 13 19 2 -5
ATTRIBUTES 029a
BITMAP
03e0
0c70
1838
3038
3038
6038
6030
6030
e060
e040
e080
b300
9c00
8000
8000
c000
6000
7fc0
1fe0
ENDCHAR
STARTCHAR iacute
ENCODING 237
SWIDTH 640 0
DWIDTH 16 0
BBX 14 18 1 -5
ATTRIBUTES 027c
BITMAP
01fc
0618
0c00
3800
3000
7000
e000
e000
e000
e000
f000
7fc0
1ff0
0070
0030
0020
18c0
3f00
ENDCHAR
STARTCHAR icircumflex
ENCODING 238
SWIDTH 920 0
DWIDTH 23 0
BBX 19 19 2 -5
ATTRIBUTES 039f
BITMAP
0f0780
11d9c0
20f060
60f060
40e060
c0e060
c0e040
c0c0c0
c0c0c0
e0c180
61c300
318600
1fb800
07c000
018000
038000
030000
030000
030000
ENDCHAR
STARTCHAR idiaeresis
ENCODING 239
SWIDTH 640 0
DWIDTH 16 0
BBX 11 20 3 0
ATTRIBUTES 028e
BITMAP
0e00
3f80
6180
40c0
0040
0060
0020
0020
07a0
18e0
3060
6020
4020
c040
c040
c080
e180
e300
7e00
3800
ENDCHAR
STARTCHAR eth
ENCODING 240
SWIDTH 600 0
DWIDTH 15 0
BBX 13 22 1 0
ATTRIBUTES 024d
BITMAP
00f0
0188
0308
0308
0608
0610
0e60
cf80
3c00
0c00
1c00
1800
1800
1800
3800
3040
3040
3080
3080
3100
3200
1c00
ENDCHAR
STARTCHAR ntilde
ENCODING 241
SWIDTH 320 0
DWIDTH 8 0
BBX 5 13 2 0
ATTRIBUTES 0151
BITMAP
f8
38
30
30
30
70
70
60
60
60
e0
e0
f8
ENDCHAR
STARTCHAR ograve
ENCODING 242
SWIDTH 400 0
DWIDTH 10 0
BBX 11 18 -3 -5
ATTRIBUTES 0187
BITMAP
01e0
00e0
00c0
00c0
00c0
00c0
01c0
0180
0180
0180
0180
0380
0300
0300
4300
c600
cc00
f800
ENDCHAR
STARTCHAR oacute
ENCODING 243
SWIDTH 720 0
DWIDTH 18 0
BBX 17 20 0 -5
ATTRIBUTES 02d5
BITMAP
020000
0c0200
181f00
183380
304180
308180
390180
3a0180
1c0100
180300
1c0300
2c0600
2ccc00
4ed800
46e000
460000
860000
8c0000
9c0000
780000
ENDCHAR
STARTCHAR ocircumflex
ENCODING 244
SWIDTH 680 0
DWIDTH 17 0
BBX 11 18 3 0
ATTRIBUTES 0298
BITMAP
0060
0060
0060
0060
0060
0060
0060
0060
ffe0
ffe0
0060
0060
0060
0060
0060
0060
ffe0
ffe0
ENDCHAR
STARTCHAR otilde
ENCODING 245
SWIDTH 760 0
DWIDTH 19 0
BBX 14 20 3 -1
ATTRIBUTES 0300
BITMAP
3e00
ffc0
c1e0
0070
0030
0018
0018
000c
000c
000c
c00c
c00c
c00c
c018
c018
c030
c070
c0e0
ffc0
1e00
ENDCHAR
STARTCHAR odiaeresis
ENCODING 246
SWIDTH 640 0
DWIDTH 16 0
BBX 11 20 2 -1
ATTRIBUTES 0274
BITMAP
0fc0
3860
7820
7000
7000
7000
3000
1800
0400
1f80
3800
7000
e000
e000
e000
e000
e020
7060
38e0
0f80
ENDCHAR
STARTCHAR division
ENCODING 247
SWIDTH 880 0
DWIDTH 22 0
BBX 18 18 2 0
ATTRIBUTES 036c
BITMAP
fe1fc0
fe1fc0
c610c0
8c0c40
180400
380600
700300
700380
e001c0
e001c0
e001c0
e001c0
600180
700380
300300
180600
0e1c00
03f000
ENDCHAR
STARTCHAR oslash
ENCODING 248
SWIDTH 760 0
DWIDTH 19 0
BBX 18 22 1 -8
ATTRIBUTES 0304
BITMAP
03cc00
066c00
0c3c00
183c00
181800
383800
303800
303840
303880
307080
107300
18bc00
0f7000
03f000
0c6000
106000
20e000
40c000
c1c000
c18000
e30000
3c0000
ENDCHAR
STARTCHAR ugrave
ENCODING 249
SWIDTH 800 0
DWIDTH 20 0
BBX 19 22 1 0
ATTRIBUTES 032f
BITMAP
00f000
018800
030800
030800
060800
061000
0e6000
cf8000
3e0000
0c7000
0c8800
1d0800
1a0800
1c1800
1c1800
181820
381820
381840
301840
301880
301900
700e00
ENDCHAR
STARTCHAR uacute
ENCODING 250
SWIDTH 680 0
DWIDTH 17 0
BBX 17 22 0 -8
ATTRIBUTES 02a5
BITMAP
020000
0f1800
1ff800
10f000
004000
008000
010000
020100
0c0200
0f8400
18d800
106000
01b000
063000
083000
103000
607000
406000
c0e000
c1c000
e38000
3e0000
ENDCHAR
STARTCHAR ucircumflex
ENCODING 251
SWIDTH 600 0
DWIDTH 15 0
BBX 14 19 1 0
ATTRIBUTES 0253
BITMAP
6000
f800
3c40
1d80
0e00
1e00
6700
0700
0b80
0b80
1180
11c0
20c0
60e0
4060
c070
c030
c038
e01c
ENDCHAR
STARTCHAR udiaeresis
ENCODING 252
SWIDTH 600 0
DWIDTH 15 0
BBX 17 22 1 0
ATTRIBUTES 024d
BITMAP
00f000
018800
030800
030800
7fff80
061000
0e6000
cf8000
3c0000
0c0000
1c0000
180000
180000
180000
380000
304000
304000
308000
308000
310000
320000
1c0000
ENDCHAR
STARTCHAR yacute
ENCODING 253
SWIDTH 680 0
DWIDTH 17 0
BBX 13 15 2 0
ATTRIBUTES 029b
BITMAP
4000
7f80
ffc0
00e0
0020
0020
0020
0020
0020
0020
0020
0020
0020
fff8
fff0
ENDCHAR
STARTCHAR thorn
ENCODING 254
SWIDTH 480 0
DWIDTH 12 0
BBX 9 15 1 0
ATTRIBUTES 01ce
BITMAP
4000
7800
7c00
1c00
0400
0600
0600
0200
0200
0600
0b00
0b00
1100
7100
e180
ENDCHAR
STARTCHAR ydiaeresis
ENCODING 255
SWIDTH 600 0
DWIDTH 15 0
BBX 13 15 1 0
ATTRIBUTES 025e
BITMAP
4000
fff8
fff0
0040
0040
0040
0040
0040
0040
0040
0040
0040
0040
0040
0040
ENDCHAR
ENDFONT
